<svg width="351" height="124" viewBox="0 0 351 124" fill="none" xmlns="http://www.w3.org/2000/svg">
<path opacity="0.6" d="M40.625 71.8438C36.0417 74.4688 30.9375 75.7812 25.3125 75.7812C18.875 75.7812 13.625 73.6667 9.5625 69.4375C5.5 65.1875 3.46875 59.5833 3.46875 52.625C3.46875 45.5208 5.70833 39.6875 10.1875 35.125C14.6875 30.5417 20.3646 28.25 27.2188 28.25C32.3646 28.25 36.5521 29.0729 39.7812 30.7188V36.4375C36.0729 34.0833 31.6771 32.9062 26.5938 32.9062C21.3854 32.9062 17.1146 34.6979 13.7812 38.2812C10.4479 41.8646 8.78125 46.5104 8.78125 52.2188C8.78125 58.1354 10.3229 62.7708 13.4062 66.125C16.4896 69.4792 20.6979 71.1562 26.0312 71.1562C29.8021 71.1562 32.9792 70.4167 35.5625 68.9375V55.7812H25.4375V51.1562H40.625V71.8438ZM105.887 75H100.294L95.2937 61.9375H75.575L70.9187 75H65.2937L82.9812 29H88.1062L105.887 75ZM93.575 57.3125L86.2312 37.4375C85.9604 36.7083 85.7312 35.6979 85.5437 34.4062H85.3875C85.1583 35.8438 84.9083 36.8542 84.6375 37.4375L77.3562 57.3125H93.575ZM164.525 75H158.463L150.744 62.0625C149.098 59.3125 147.619 57.5 146.306 56.625C144.994 55.75 143.41 55.3125 141.556 55.3125H136.994V75H131.963V29H145.494C149.723 29 153.077 30.0938 155.556 32.2812C158.056 34.4688 159.306 37.4583 159.306 41.25C159.306 47.6042 155.91 51.7292 149.119 53.625V53.75C150.41 54.3125 151.473 55.0625 152.306 56C153.16 56.9167 154.369 58.6458 155.931 61.1875L164.525 75ZM136.994 33.7188V50.625H144.525C147.358 50.625 149.64 49.8021 151.369 48.1562C153.119 46.4896 153.994 44.3229 153.994 41.6562C153.994 39.1562 153.181 37.2083 151.556 35.8125C149.952 34.4167 147.629 33.7188 144.588 33.7188H136.994ZM190.225 75V29H202.694C218.86 29 226.944 36.4792 226.944 51.4375C226.944 58.5625 224.631 64.2708 220.006 68.5625C215.381 72.8542 209.423 75 202.131 75H190.225ZM195.256 33.6562V70.375H202.256C208.402 70.375 213.173 68.7292 216.569 65.4375C219.965 62.125 221.663 57.5 221.663 51.5625C221.663 39.625 215.298 33.6562 202.569 33.6562H195.256ZM279.519 75H255.363V29H278.488V33.6562H260.394V49.2812H277.113V53.9062H260.394V70.375H279.519V75ZM344.469 75H338.125L314.125 37.875C313.625 37.1042 313.146 36.1458 312.688 35H312.531C312.677 36.1875 312.75 38.2812 312.75 41.2812V75H307.688V29H314.375L337.719 65.625C338.802 67.3125 339.417 68.3229 339.562 68.6562H339.688C339.458 67.1354 339.344 64.8646 339.344 61.8438V29H344.469V75Z" fill="black"/>
<path opacity="0.6" d="M73.332 113.492C74.4102 114.289 75.5938 114.688 76.8828 114.688C78.6328 114.688 79.5078 114.098 79.5078 112.918C79.5078 112.41 79.3164 111.992 78.9336 111.664C78.5508 111.328 77.7969 110.949 76.6719 110.527C75.375 110.012 74.4961 109.488 74.0352 108.957C73.582 108.426 73.3555 107.754 73.3555 106.941C73.3555 105.895 73.8086 105.043 74.7148 104.387C75.6211 103.73 76.7266 103.402 78.0312 103.402C79.0781 103.402 80.0234 103.586 80.8672 103.953V105.887C79.9531 105.293 78.9102 104.996 77.7383 104.996C76.9727 104.996 76.3711 105.168 75.9336 105.512C75.4961 105.848 75.2773 106.27 75.2773 106.777C75.2773 107.324 75.4375 107.742 75.7578 108.031C76.0859 108.32 76.793 108.68 77.8789 109.109C79.3477 109.68 80.3047 110.238 80.75 110.785C81.1953 111.332 81.418 111.984 81.418 112.742C81.418 113.836 80.9648 114.703 80.0586 115.344C79.1602 115.977 78.0078 116.293 76.6016 116.293C75.3281 116.293 74.2383 116.043 73.332 115.543V113.492ZM83.6797 110C83.6797 107.953 84.2344 106.344 85.3438 105.172C86.4609 103.992 87.9844 103.402 89.9141 103.402C91.7109 103.402 93.125 103.969 94.1562 105.102C95.1953 106.227 95.7148 107.797 95.7148 109.812C95.7148 111.766 95.1562 113.336 94.0391 114.523C92.9219 115.703 91.4492 116.293 89.6211 116.293C87.832 116.293 86.3945 115.715 85.3086 114.559C84.2227 113.402 83.6797 111.883 83.6797 110ZM85.5664 109.918C85.5664 111.371 85.9453 112.535 86.7031 113.41C87.4688 114.277 88.4844 114.711 89.75 114.711C91.0625 114.711 92.0664 114.293 92.7617 113.457C93.4648 112.613 93.8164 111.418 93.8164 109.871C93.8164 108.316 93.4648 107.113 92.7617 106.262C92.0586 105.402 91.0547 104.973 89.75 104.973C88.4766 104.973 87.4609 105.414 86.7031 106.297C85.9453 107.18 85.5664 108.387 85.5664 109.918ZM108.758 116H106.895V114.055H106.848C106.035 115.547 104.77 116.293 103.051 116.293C100.113 116.293 98.6445 114.543 98.6445 111.043V103.684H100.484V110.738C100.484 113.387 101.492 114.711 103.508 114.711C104.492 114.711 105.301 114.348 105.934 113.621C106.574 112.887 106.895 111.938 106.895 110.773V103.684H108.758V116ZM122.902 116H121.039V108.969C121.039 106.305 120.066 104.973 118.121 104.973C117.121 104.973 116.289 105.352 115.625 106.109C114.969 106.859 114.641 107.816 114.641 108.98V116H112.777V103.684H114.641V105.746H114.688C115.609 104.184 116.957 103.402 118.73 103.402C120.082 103.402 121.113 103.836 121.824 104.703C122.543 105.57 122.902 106.828 122.902 108.477V116ZM137.059 116H135.219V113.879H135.172C134.258 115.488 132.84 116.293 130.918 116.293C129.371 116.293 128.133 115.742 127.203 114.641C126.281 113.531 125.82 112.027 125.82 110.129C125.82 108.105 126.336 106.48 127.367 105.254C128.398 104.02 129.758 103.402 131.445 103.402C133.141 103.402 134.383 104.074 135.172 105.418H135.219V97.7773H137.059V116ZM135.219 108.582C135.219 107.582 134.879 106.73 134.199 106.027C133.52 105.324 132.672 104.973 131.656 104.973C130.438 104.973 129.473 105.43 128.762 106.344C128.059 107.25 127.707 108.48 127.707 110.035C127.707 111.449 128.039 112.582 128.703 113.434C129.375 114.285 130.285 114.711 131.434 114.711C132.527 114.711 133.43 114.309 134.141 113.504C134.859 112.699 135.219 111.684 135.219 110.457V108.582ZM149.305 99.2539C149.305 98.9023 149.422 98.6094 149.656 98.375C149.891 98.1328 150.176 98.0117 150.512 98.0117C150.863 98.0117 151.156 98.1328 151.391 98.375C151.633 98.6172 151.754 98.9102 151.754 99.2539C151.754 99.6055 151.633 99.8984 151.391 100.133C151.156 100.367 150.863 100.484 150.512 100.484C150.176 100.484 149.891 100.371 149.656 100.145C149.422 99.9102 149.305 99.6133 149.305 99.2539ZM149.562 116V103.684H151.414V116H149.562ZM165.582 116H163.719V108.969C163.719 106.305 162.746 104.973 160.801 104.973C159.801 104.973 158.969 105.352 158.305 106.109C157.648 106.859 157.32 107.816 157.32 108.98V116H155.457V103.684H157.32V105.746H157.367C158.289 104.184 159.637 103.402 161.41 103.402C162.762 103.402 163.793 103.836 164.504 104.703C165.223 105.57 165.582 106.828 165.582 108.477V116ZM187.59 110.305H178.859C178.898 111.727 179.277 112.816 179.996 113.574C180.723 114.324 181.695 114.699 182.914 114.699C184.32 114.699 185.602 114.234 186.758 113.305V115.086C185.656 115.891 184.23 116.293 182.48 116.293C180.746 116.293 179.387 115.727 178.402 114.594C177.426 113.453 176.938 111.879 176.938 109.871C176.938 108.004 177.477 106.461 178.555 105.242C179.633 104.016 180.969 103.402 182.562 103.402C184.156 103.402 185.391 103.926 186.266 104.973C187.148 106.012 187.59 107.453 187.59 109.297V110.305ZM185.668 108.664C185.668 107.516 185.391 106.617 184.836 105.969C184.289 105.32 183.523 104.996 182.539 104.996C181.609 104.996 180.809 105.332 180.137 106.004C179.465 106.668 179.047 107.555 178.883 108.664H185.668ZM200.164 103.684L195.23 116H193.449L188.773 103.684H190.824L194 112.73C194.227 113.387 194.371 113.945 194.434 114.406H194.492C194.57 113.797 194.695 113.25 194.867 112.766L198.207 103.684H200.164ZM201.477 110C201.477 107.953 202.031 106.344 203.141 105.172C204.258 103.992 205.781 103.402 207.711 103.402C209.508 103.402 210.922 103.969 211.953 105.102C212.992 106.227 213.512 107.797 213.512 109.812C213.512 111.766 212.953 113.336 211.836 114.523C210.719 115.703 209.246 116.293 207.418 116.293C205.629 116.293 204.191 115.715 203.105 114.559C202.02 113.402 201.477 111.883 201.477 110ZM203.363 109.918C203.363 111.371 203.742 112.535 204.5 113.41C205.266 114.277 206.281 114.711 207.547 114.711C208.859 114.711 209.863 114.293 210.559 113.457C211.262 112.613 211.613 111.418 211.613 109.871C211.613 108.316 211.262 107.113 210.559 106.262C209.855 105.402 208.852 104.973 207.547 104.973C206.273 104.973 205.258 105.414 204.5 106.297C203.742 107.18 203.363 108.387 203.363 109.918ZM216.711 116V97.7773H218.562V116H216.711ZM232.461 116H230.598V114.055H230.551C229.738 115.547 228.473 116.293 226.754 116.293C223.816 116.293 222.348 114.543 222.348 111.043V103.684H224.188V110.738C224.188 113.387 225.195 114.711 227.211 114.711C228.195 114.711 229.004 114.348 229.637 113.621C230.277 112.887 230.598 111.938 230.598 110.773V103.684H232.461V116ZM242.082 115.883C241.613 116.141 241.016 116.27 240.289 116.27C238.172 116.27 237.113 115.078 237.113 112.695V105.289H234.98V103.684H237.113V100.66L238.965 100.062V103.684H242.082V105.289H238.965V112.355C238.965 113.223 239.109 113.828 239.398 114.172C239.688 114.516 240.156 114.688 240.805 114.688C241.297 114.688 241.723 114.551 242.082 114.277V115.883ZM244.508 99.2539C244.508 98.9023 244.625 98.6094 244.859 98.375C245.094 98.1328 245.379 98.0117 245.715 98.0117C246.066 98.0117 246.359 98.1328 246.594 98.375C246.836 98.6172 246.957 98.9102 246.957 99.2539C246.957 99.6055 246.836 99.8984 246.594 100.133C246.359 100.367 246.066 100.484 245.715 100.484C245.379 100.484 245.094 100.371 244.859 100.145C244.625 99.9102 244.508 99.6133 244.508 99.2539ZM244.766 116V103.684H246.617V116H244.766ZM249.828 110C249.828 107.953 250.383 106.344 251.492 105.172C252.609 103.992 254.133 103.402 256.062 103.402C257.859 103.402 259.273 103.969 260.305 105.102C261.344 106.227 261.863 107.797 261.863 109.812C261.863 111.766 261.305 113.336 260.188 114.523C259.07 115.703 257.598 116.293 255.77 116.293C253.98 116.293 252.543 115.715 251.457 114.559C250.371 113.402 249.828 111.883 249.828 110ZM251.715 109.918C251.715 111.371 252.094 112.535 252.852 113.41C253.617 114.277 254.633 114.711 255.898 114.711C257.211 114.711 258.215 114.293 258.91 113.457C259.613 112.613 259.965 111.418 259.965 109.871C259.965 108.316 259.613 107.113 258.91 106.262C258.207 105.402 257.203 104.973 255.898 104.973C254.625 104.973 253.609 105.414 252.852 106.297C252.094 107.18 251.715 108.387 251.715 109.918ZM275.176 116H273.312V108.969C273.312 106.305 272.34 104.973 270.395 104.973C269.395 104.973 268.562 105.352 267.898 106.109C267.242 106.859 266.914 107.816 266.914 108.98V116H265.051V103.684H266.914V105.746H266.961C267.883 104.184 269.23 103.402 271.004 103.402C272.355 103.402 273.387 103.836 274.098 104.703C274.816 105.57 275.176 106.828 275.176 108.477V116Z" fill="black"/>
</svg>
