<svg width="224" height="24" viewBox="0 0 224 24" fill="none" xmlns="http://www.w3.org/2000/svg">
<path opacity="0.6" d="M1.86328 16.418V23.8945H0V5.90625H1.86328V8.08594H1.91016C2.88672 6.44531 4.30859 5.625 6.17578 5.625C7.73828 5.625 8.97266 6.17578 9.87891 7.27734C10.7852 8.37109 11.2383 9.84766 11.2383 11.707C11.2383 13.7852 10.7266 15.4414 9.70312 16.6758C8.6875 17.9023 7.32422 18.5156 5.61328 18.5156C4.01172 18.5156 2.77734 17.8164 1.91016 16.418H1.86328ZM1.86328 13.2305C1.86328 14.2539 2.20312 15.1289 2.88281 15.8555C3.57031 16.5742 4.42578 16.9336 5.44922 16.9336C6.66016 16.9336 7.60938 16.4688 8.29688 15.5391C8.99219 14.6094 9.33984 13.3125 9.33984 11.6484C9.33984 10.2812 9.01172 9.19922 8.35547 8.40234C7.70703 7.59766 6.83984 7.19531 5.75391 7.19531C4.62109 7.19531 3.6875 7.59766 2.95312 8.40234C2.22656 9.20703 1.86328 10.2227 1.86328 11.4492V13.2305ZM14.4258 18.2227V0H16.2773V18.2227H14.4258ZM20.6133 6.78516C21.8164 6.01172 23.1992 5.625 24.7617 5.625C27.6211 5.625 29.0508 7.14062 29.0508 10.1719V18.2227H27.1875V16.2891H27.1172C26.2656 17.7734 25.0039 18.5156 23.332 18.5156C22.1289 18.5156 21.1719 18.1953 20.4609 17.5547C19.7578 16.9062 19.4062 16.043 19.4062 14.9648C19.4062 12.6758 20.7578 11.3438 23.4609 10.9688L27.1758 10.4297C27.1758 8.28906 26.3242 7.21875 24.6211 7.21875C23.1211 7.21875 21.7852 7.73047 20.6133 8.75391V6.78516ZM24.1641 12.375C23.2031 12.5 22.4922 12.7344 22.0312 13.0781C21.5703 13.4219 21.3398 14.0078 21.3398 14.8359C21.3398 15.4609 21.5586 15.9648 21.9961 16.3477C22.4414 16.7305 23.0234 16.9219 23.7422 16.9219C24.7344 16.9219 25.5547 16.5703 26.2031 15.8672C26.8516 15.1641 27.1758 14.2812 27.1758 13.2188V11.9766L24.1641 12.375ZM42.9375 18.2227H41.0742V11.1914C41.0742 8.52734 40.1016 7.19531 38.1562 7.19531C37.1562 7.19531 36.3242 7.57422 35.6602 8.33203C35.0039 9.08203 34.6758 10.0391 34.6758 11.2031V18.2227H32.8125V5.90625H34.6758V7.96875H34.7227C35.6445 6.40625 36.9922 5.625 38.7656 5.625C40.1172 5.625 41.1484 6.05859 41.8594 6.92578C42.5781 7.79297 42.9375 9.05078 42.9375 10.6992V18.2227ZM52.2891 18.1055C51.8203 18.3633 51.2227 18.4922 50.4961 18.4922C48.3789 18.4922 47.3203 17.3008 47.3203 14.918V7.51172H45.1875V5.90625H47.3203V2.88281L49.1719 2.28516V5.90625H52.2891V7.51172H49.1719V14.5781C49.1719 15.4453 49.3164 16.0508 49.6055 16.3945C49.8945 16.7383 50.3633 16.9102 51.0117 16.9102C51.5039 16.9102 51.9297 16.7734 52.2891 16.5V18.1055ZM63.6914 6.78516C64.8945 6.01172 66.2773 5.625 67.8398 5.625C70.6992 5.625 72.1289 7.14062 72.1289 10.1719V18.2227H70.2656V16.2891H70.1953C69.3438 17.7734 68.082 18.5156 66.4102 18.5156C65.207 18.5156 64.25 18.1953 63.5391 17.5547C62.8359 16.9062 62.4844 16.043 62.4844 14.9648C62.4844 12.6758 63.8359 11.3438 66.5391 10.9688L70.2539 10.4297C70.2539 8.28906 69.4023 7.21875 67.6992 7.21875C66.1992 7.21875 64.8633 7.73047 63.6914 8.75391V6.78516ZM67.2422 12.375C66.2812 12.5 65.5703 12.7344 65.1094 13.0781C64.6484 13.4219 64.418 14.0078 64.418 14.8359C64.418 15.4609 64.6367 15.9648 65.0742 16.3477C65.5195 16.7305 66.1016 16.9219 66.8203 16.9219C67.8125 16.9219 68.6328 16.5703 69.2812 15.8672C69.9297 15.1641 70.2539 14.2812 70.2539 13.2188V11.9766L67.2422 12.375ZM83.5547 15.7148C84.6328 16.5117 85.8164 16.9102 87.1055 16.9102C88.8555 16.9102 89.7305 16.3203 89.7305 15.1406C89.7305 14.6328 89.5391 14.2148 89.1562 13.8867C88.7734 13.5508 88.0195 13.1719 86.8945 12.75C85.5977 12.2344 84.7188 11.7109 84.2578 11.1797C83.8047 10.6484 83.5781 9.97656 83.5781 9.16406C83.5781 8.11719 84.0312 7.26562 84.9375 6.60938C85.8438 5.95312 86.9492 5.625 88.2539 5.625C89.3008 5.625 90.2461 5.80859 91.0898 6.17578V8.10938C90.1758 7.51562 89.1328 7.21875 87.9609 7.21875C87.1953 7.21875 86.5938 7.39062 86.1562 7.73438C85.7188 8.07031 85.5 8.49219 85.5 9C85.5 9.54688 85.6602 9.96484 85.9805 10.2539C86.3086 10.543 87.0156 10.9023 88.1016 11.332C89.5703 11.9023 90.5273 12.4609 90.9727 13.0078C91.418 13.5547 91.6406 14.207 91.6406 14.9648C91.6406 16.0586 91.1875 16.9258 90.2812 17.5664C89.3828 18.1992 88.2305 18.5156 86.8242 18.5156C85.5508 18.5156 84.4609 18.2656 83.5547 17.7656V15.7148ZM104.555 12.5273H95.8242C95.8633 13.9492 96.2422 15.0391 96.9609 15.7969C97.6875 16.5469 98.6602 16.9219 99.8789 16.9219C101.285 16.9219 102.566 16.457 103.723 15.5273V17.3086C102.621 18.1133 101.195 18.5156 99.4453 18.5156C97.7109 18.5156 96.3516 17.9492 95.3672 16.8164C94.3906 15.6758 93.9023 14.1016 93.9023 12.0938C93.9023 10.2266 94.4414 8.68359 95.5195 7.46484C96.5977 6.23828 97.9336 5.625 99.5273 5.625C101.121 5.625 102.355 6.14844 103.23 7.19531C104.113 8.23438 104.555 9.67578 104.555 11.5195V12.5273ZM102.633 10.8867C102.633 9.73828 102.355 8.83984 101.801 8.19141C101.254 7.54297 100.488 7.21875 99.5039 7.21875C98.5742 7.21875 97.7734 7.55469 97.1016 8.22656C96.4297 8.89062 96.0117 9.77734 95.8477 10.8867H102.633ZM117.398 12.5273H108.668C108.707 13.9492 109.086 15.0391 109.805 15.7969C110.531 16.5469 111.504 16.9219 112.723 16.9219C114.129 16.9219 115.41 16.457 116.566 15.5273V17.3086C115.465 18.1133 114.039 18.5156 112.289 18.5156C110.555 18.5156 109.195 17.9492 108.211 16.8164C107.234 15.6758 106.746 14.1016 106.746 12.0938C106.746 10.2266 107.285 8.68359 108.363 7.46484C109.441 6.23828 110.777 5.625 112.371 5.625C113.965 5.625 115.199 6.14844 116.074 7.19531C116.957 8.23438 117.398 9.67578 117.398 11.5195V12.5273ZM115.477 10.8867C115.477 9.73828 115.199 8.83984 114.645 8.19141C114.098 7.54297 113.332 7.21875 112.348 7.21875C111.418 7.21875 110.617 7.55469 109.945 8.22656C109.273 8.89062 108.855 9.77734 108.691 10.8867H115.477ZM130.828 18.2227H128.988V16.1016H128.941C128.027 17.7109 126.609 18.5156 124.688 18.5156C123.141 18.5156 121.902 17.9648 120.973 16.8633C120.051 15.7539 119.59 14.25 119.59 12.3516C119.59 10.3281 120.105 8.70312 121.137 7.47656C122.168 6.24219 123.527 5.625 125.215 5.625C126.91 5.625 128.152 6.29688 128.941 7.64062H128.988V0H130.828V18.2227ZM128.988 10.8047C128.988 9.80469 128.648 8.95312 127.969 8.25C127.289 7.54688 126.441 7.19531 125.426 7.19531C124.207 7.19531 123.242 7.65234 122.531 8.56641C121.828 9.47266 121.477 10.7031 121.477 12.2578C121.477 13.6719 121.809 14.8047 122.473 15.6562C123.145 16.5078 124.055 16.9336 125.203 16.9336C126.297 16.9336 127.199 16.5312 127.91 15.7266C128.629 14.9219 128.988 13.9062 128.988 12.6797V10.8047ZM158.684 5.90625L154.992 18.2227H153.059L150.48 9.30469C150.387 8.98438 150.324 8.61328 150.293 8.19141H150.246C150.246 8.35547 150.16 8.71875 149.988 9.28125L147.199 18.2227H145.348L141.609 5.90625H143.555L146.156 15.2461C146.234 15.5273 146.289 15.8906 146.32 16.3359H146.414C146.453 15.9531 146.527 15.582 146.637 15.2227L149.52 5.90625H151.219L153.809 15.2695C153.871 15.4883 153.93 15.8516 153.984 16.3594H154.09C154.105 16.0234 154.172 15.6602 154.289 15.2695L156.844 5.90625H158.684ZM160.746 1.47656C160.746 1.125 160.863 0.832031 161.098 0.597656C161.332 0.355469 161.617 0.234375 161.953 0.234375C162.305 0.234375 162.598 0.355469 162.832 0.597656C163.074 0.839844 163.195 1.13281 163.195 1.47656C163.195 1.82812 163.074 2.12109 162.832 2.35547C162.598 2.58984 162.305 2.70703 161.953 2.70703C161.617 2.70703 161.332 2.59375 161.098 2.36719C160.863 2.13281 160.746 1.83594 160.746 1.47656ZM161.004 18.2227V5.90625H162.855V18.2227H161.004ZM172.5 18.1055C172.031 18.3633 171.434 18.4922 170.707 18.4922C168.59 18.4922 167.531 17.3008 167.531 14.918V7.51172H165.398V5.90625H167.531V2.88281L169.383 2.28516V5.90625H172.5V7.51172H169.383V14.5781C169.383 15.4453 169.527 16.0508 169.816 16.3945C170.105 16.7383 170.574 16.9102 171.223 16.9102C171.715 16.9102 172.141 16.7734 172.5 16.5V18.1055ZM185.297 18.2227H183.445V11.1211C183.445 8.50391 182.469 7.19531 180.516 7.19531C179.539 7.19531 178.715 7.57422 178.043 8.33203C177.371 9.08984 177.035 10.0625 177.035 11.25V18.2227H175.172V0H177.035V7.96875H177.082C178.027 6.40625 179.379 5.625 181.137 5.625C183.91 5.625 185.297 7.29688 185.297 10.6406V18.2227ZM207.363 18.2227H205.5V16.2773H205.453C204.641 17.7695 203.375 18.5156 201.656 18.5156C198.719 18.5156 197.25 16.7656 197.25 13.2656V5.90625H199.09V12.9609C199.09 15.6094 200.098 16.9336 202.113 16.9336C203.098 16.9336 203.906 16.5703 204.539 15.8438C205.18 15.1094 205.5 14.1602 205.5 12.9961V5.90625H207.363V18.2227ZM210.609 15.7148C211.688 16.5117 212.871 16.9102 214.16 16.9102C215.91 16.9102 216.785 16.3203 216.785 15.1406C216.785 14.6328 216.594 14.2148 216.211 13.8867C215.828 13.5508 215.074 13.1719 213.949 12.75C212.652 12.2344 211.773 11.7109 211.312 11.1797C210.859 10.6484 210.633 9.97656 210.633 9.16406C210.633 8.11719 211.086 7.26562 211.992 6.60938C212.898 5.95312 214.004 5.625 215.309 5.625C216.355 5.625 217.301 5.80859 218.145 6.17578V8.10938C217.23 7.51562 216.188 7.21875 215.016 7.21875C214.25 7.21875 213.648 7.39062 213.211 7.73438C212.773 8.07031 212.555 8.49219 212.555 9C212.555 9.54688 212.715 9.96484 213.035 10.2539C213.363 10.543 214.07 10.9023 215.156 11.332C216.625 11.9023 217.582 12.4609 218.027 13.0078C218.473 13.5547 218.695 14.207 218.695 14.9648C218.695 16.0586 218.242 16.9258 217.336 17.5664C216.438 18.1992 215.285 18.5156 213.879 18.5156C212.605 18.5156 211.516 18.2656 210.609 17.7656V15.7148ZM221.109 17.1914C221.109 16.8242 221.238 16.5156 221.496 16.2656C221.754 16.0078 222.055 15.8789 222.398 15.8789C222.742 15.8789 223.043 16.0078 223.301 16.2656C223.559 16.5156 223.688 16.8242 223.688 17.1914C223.688 17.5352 223.559 17.8398 223.301 18.1055C223.051 18.3633 222.75 18.4922 222.398 18.4922C222.047 18.4922 221.742 18.3672 221.484 18.1172C221.234 17.8594 221.109 17.5508 221.109 17.1914Z" fill="black"/>
</svg>
